<?xml version="1.0" standalone="no"?>
<!DOCTYPE svg PUBLIC "-//W3C//DTD SVG 20010904//EN"
 "http://www.w3.org/TR/2001/REC-SVG-20010904/DTD/svg10.dtd">
<svg version="1.0" xmlns="http://www.w3.org/2000/svg"
 width="300.000000pt" height="300.000000pt" viewBox="0 0 300.000000 300.000000"
 preserveAspectRatio="xMidYMid meet">
<metadata>
Created by potrace 1.10, written by Peter Selinger 2001-2011
</metadata>
<g transform="translate(0.000000,300.000000) scale(0.100000,-0.100000)"
fill="#ffffff" stroke="none">
<path d="M1146 2035 c-90 -25 -177 -75 -243 -141 l-63 -64 0 75 c0 40 -3 76
-7 78 -17 10 -132 -15 -188 -42 -229 -107 -323 -390 -206 -618 32 -64 115
-147 180 -182 60 -32 193 -67 212 -56 5 4 9 39 9 79 l0 74 63 -62 c108 -106
237 -159 387 -159 195 -1 360 82 466 233 89 128 114 297 66 440 -55 162 -196
292 -371 344 -67 20 -235 20 -305 1z"/>
<path d="M2140 1868 l0 -120 -32 48 c-35 52 -89 94 -119 94 -18 0 -19 -16 -19
-355 0 -390 -3 -373 59 -341 27 14 73 62 98 102 10 15 12 -3 12 -99 l1 -117
43 6 c179 25 317 132 377 292 103 274 -82 571 -377 605 l-43 5 0 -120z"/>
<path d="M234 1871 c-48 -29 -92 -90 -116 -161 -33 -94 -32 -257 1 -353 28
-82 98 -164 149 -173 l32 -6 0 356 c0 332 -1 356 -17 356 -10 0 -32 -9 -49
-19z"/>
<path d="M2690 1534 l0 -356 32 6 c43 8 103 68 132 131 73 153 53 395 -41 504
-36 42 -79 71 -108 71 -13 0 -15 -41 -15 -356z"/>
</g>
</svg>
